# xmcd CD database file
#
# Track frame offsets:
#	150
#	17953
#	42536
#	69814
#	105346
#	125937
#	136239
#	160272
#	176033
#	203742
#
# Disc length: 3046 seconds
#
# Revision: 0
# Processed by: cddbd v1.5.1PL0 Copyright (c) Steve Scherf et al.
# Submitted via: CDex 1.51
#
DISCID=8a0be40a
DTITLE=Yngwie J. Malmsteen's Rising Force - Flashing Through The Sky [CD2]
DYEAR=1985
DGENRE=Heavy Metal
TTITLE0=Anguish And Fear
TTITLE1=Drums Solo-Anguish And Fear (Return)
TTITLE2=Disciples Of Hell
TTITLE3=Black Star
TTITLE4=Horoshima Mon Amour
TTITLE5=Icarus' Dream Suite Opus 4
TTITLE6=I Am A Viking
TTITLE7=On The Run Again
TTITLE8=Little Savage-Kree Nakoorie
TTITLE9=Guitar Solo
EXTD=YEAR: 1985
EXTT0=
EXTT1=
EXTT2=
EXTT3=
EXTT4=
EXTT5=
EXTT6=
EXTT7=
EXTT8=
EXTT9=
PLAYORDER=
